<?xml version="1.0" encoding="UTF-8" standalone="no"?>
<!-- Created with Inkscape (http://www.inkscape.org/) -->

<svg
   width="300"
   height="300"
   viewBox="0 0 79.375 79.375003"
   version="1.1"
   id="svg291"
   inkscape:version="1.1.1 (3bf5ae0d25, 2021-09-20)"
   sodipodi:docname="logo.svg"
   inkscape:export-filename="C:\Projects\Web\little-nebula\static\favicon.png"
   inkscape:export-xdpi="10.24"
   inkscape:export-ydpi="10.24"
   xmlns:inkscape="http://www.inkscape.org/namespaces/inkscape"
   xmlns:sodipodi="http://sodipodi.sourceforge.net/DTD/sodipodi-0.dtd"
   xmlns:xlink="http://www.w3.org/1999/xlink"
   xmlns="http://www.w3.org/2000/svg"
   xmlns:svg="http://www.w3.org/2000/svg">
  <sodipodi:namedview
     id="namedview293"
     pagecolor="#ffffff"
     bordercolor="#666666"
     borderopacity="1.0"
     inkscape:pageshadow="2"
     inkscape:pageopacity="0.0"
     inkscape:pagecheckerboard="0"
     inkscape:document-units="px"
     showgrid="false"
     width="1920px"
     units="px"
     borderlayer="true"
     inkscape:showpageshadow="false"
     inkscape:zoom="1"
     inkscape:cx="228"
     inkscape:cy="59.5"
     inkscape:window-width="2560"
     inkscape:window-height="1377"
     inkscape:window-x="2552"
     inkscape:window-y="-8"
     inkscape:window-maximized="1"
     inkscape:current-layer="layer1" />
  <defs
     id="defs288">
    <radialGradient
       inkscape:collect="always"
       xlink:href="#linearGradient1215"
       id="radialGradient1181"
       gradientUnits="userSpaceOnUse"
       gradientTransform="matrix(1.9855391,0,0,1.8170344,-67.987789,-162.97873)"
       cx="120.5744"
       cy="67.941216"
       fx="120.5744"
       fy="67.941216"
       r="11.197545" />
    <linearGradient
       id="linearGradient1215"
       inkscape:collect="always">
      <stop
         id="stop1209"
         offset="0"
         style="stop-color:#000000;stop-opacity:1;" />
      <stop
         style="stop-color:#000000;stop-opacity:0.73922902"
         offset="0.62545574"
         id="stop1211" />
      <stop
         id="stop1213"
         offset="1"
         style="stop-color:#000000;stop-opacity:0;" />
    </linearGradient>
    <radialGradient
       inkscape:collect="always"
       xlink:href="#linearGradient943-3"
       id="radialGradient1183"
       gradientUnits="userSpaceOnUse"
       gradientTransform="matrix(0.1973509,-0.21596809,0.27695331,0.27817135,-135.90666,56.789419)"
       cx="604.08124"
       cy="544.13409"
       fx="604.08124"
       fy="544.13409"
       r="118.69671" />
    <linearGradient
       inkscape:collect="always"
       id="linearGradient943-3">
      <stop
         style="stop-color:#ffcc00;stop-opacity:1"
         offset="0"
         id="stop1541" />
      <stop
         id="stop1550"
         offset="0.1983175"
         style="stop-color:#ffc303;stop-opacity:1;" />
      <stop
         id="stop1543"
         offset="0.5735628"
         style="stop-color:#ff0049;stop-opacity:1" />
      <stop
         style="stop-color:#8e0075;stop-opacity:1;"
         offset="0.77180046"
         id="stop1548" />
      <stop
         style="stop-color:#110c2c;stop-opacity:1"
         offset="1"
         id="stop1545" />
    </linearGradient>
    <linearGradient
       inkscape:collect="always"
       xlink:href="#linearGradient1187"
       id="linearGradient1185"
       gradientUnits="userSpaceOnUse"
       gradientTransform="rotate(21.854507,170.66794,-40.909918)"
       x1="164.79208"
       y1="-73.120895"
       x2="177.74342"
       y2="-73.120895" />
    <linearGradient
       id="linearGradient1187"
       inkscape:collect="always">
      <stop
         id="stop1183"
         offset="0"
         style="stop-color:#8c511c;stop-opacity:1;" />
      <stop
         id="stop1185"
         offset="1"
         style="stop-color:#76401b;stop-opacity:1" />
    </linearGradient>
    <linearGradient
       inkscape:collect="always"
       xlink:href="#linearGradient1277"
       id="linearGradient1188"
       gradientUnits="userSpaceOnUse"
       gradientTransform="rotate(21.854507,170.66794,-40.909918)"
       x1="164.79208"
       y1="-73.120895"
       x2="177.74342"
       y2="-73.120895" />
    <linearGradient
       inkscape:collect="always"
       id="linearGradient1277">
      <stop
         style="stop-color:#76401b;stop-opacity:1"
         offset="0"
         id="stop1273" />
      <stop
         id="stop1279"
         offset="0.092835"
         style="stop-color:#8b501b;stop-opacity:1;" />
      <stop
         style="stop-color:#76401b;stop-opacity:1"
         offset="1"
         id="stop1275" />
    </linearGradient>
  </defs>
  <g
     inkscape:label="Layer 1"
     inkscape:groupmode="layer"
     id="layer1">
    <g
       id="g1179"
       transform="matrix(1.2711351,0,0,1.2711351,-180.89513,102.08613)"
       style="display:inline">
      <path
         inkscape:connector-curvature="0"
         d="m 184.5842,-74.190765 a 7.9234606,2.0174512 21.854507 0 0 -8.09714,-1.07334 7.9234606,2.0174512 21.854507 0 0 -0.0185,0.0544 l -1.70801,4.258594 a 7.9234606,2.0174512 21.854507 0 0 -0.0244,0.05256 7.9234606,2.0174512 21.854507 0 0 0.68846,1.409727 l -2.6183,6.528182 c -0.0505,0.126016 -0.0913,0.253308 -0.13095,0.380653 a 21.515198,21.515198 0 0 0 -21.05707,13.478807 21.515198,21.515198 0 0 0 11.96024,27.977888 21.515198,21.515198 0 0 0 27.9777,-11.959762 21.515198,21.515198 0 0 0 -6.00403,-24.376336 c 0.0525,-0.107922 0.10584,-0.21531 0.15125,-0.328526 l 2.68369,-6.691258 a 7.9234606,2.0174512 21.854507 0 0 1.0572,-0.520278 7.9234606,2.0174512 21.854507 0 0 0.004,-0.01288 l 9.7e-4,3.85e-4 1.74591,-4.353082 a 7.9234606,2.0174512 21.854507 0 0 0.003,-0.0077 7.9234606,2.0174512 21.854507 0 0 -6.60599,-4.814811 7.9234606,2.0174512 21.854507 0 0 -0.009,-0.0032 z"
         style="fill:none;fill-opacity:1;stroke:#476978;stroke-width:3.12220949;stroke-linecap:round;stroke-linejoin:round;stroke-miterlimit:4;stroke-dasharray:none;stroke-opacity:1;paint-order:stroke fill markers"
         id="path1102" />
      <circle
         transform="rotate(21.854507)"
         style="fill:#142632;fill-opacity:1;stroke:none;stroke-width:2.50576;stroke-linecap:round;stroke-linejoin:round;stroke-miterlimit:4;stroke-dasharray:none;stroke-opacity:1;paint-order:stroke fill markers"
         id="circle1104"
         cx="143.95909"
         cy="-102.0126"
         r="21.515198" />
      <rect
         transform="rotate(21.854507)"
         ry="4.9543157"
         y="-135.43027"
         x="136.94969"
         height="17.621262"
         width="13.895961"
         id="rect1106"
         style="fill:#142632;fill-opacity:1;stroke:none;stroke-width:2.80266;stroke-linecap:round;stroke-linejoin:round;stroke-miterlimit:4;stroke-dasharray:none;stroke-opacity:1;paint-order:stroke fill markers" />
      <path
         inkscape:connector-curvature="0"
         d="m 184.58398,-74.190855 a 7.9234607,2.0174512 21.854507 0 0 -8.0967,-1.073262 7.9234607,2.0174512 21.854507 0 0 -0.0187,0.05454 l -1.70792,4.258331 a 7.9234607,2.0174512 21.854507 0 0 -0.0245,0.05291 7.9234607,2.0174512 21.854507 0 0 6.60304,4.821732 7.9234607,2.0174512 21.854507 0 0 8.10484,1.077235 7.9234607,2.0174512 21.854507 0 0 0.004,-0.01281 l 6e-4,2.37e-4 1.74595,-4.353175 a 7.9234607,2.0174512 21.854507 0 0 0.003,-0.0078 7.9234607,2.0174512 21.854507 0 0 -6.6059,-4.81453 7.9234607,2.0174512 21.854507 0 0 -0.009,-0.0033 z"
         style="fill:#142632;fill-opacity:1;stroke:none;stroke-width:3.31137;stroke-linecap:round;stroke-linejoin:round;stroke-miterlimit:4;stroke-dasharray:none;stroke-opacity:1;paint-order:stroke fill markers"
         id="path1108" />
      <ellipse
         transform="rotate(21.854507)"
         ry="2.017451"
         rx="7.923461"
         cy="-135.55287"
         cx="143.70952"
         id="ellipse1110"
         style="fill:#1b3140;fill-opacity:1;stroke:none;stroke-width:3.31137;stroke-linecap:round;stroke-linejoin:round;stroke-miterlimit:4;stroke-dasharray:none;stroke-opacity:1;paint-order:stroke fill markers" />
      <ellipse
         cy="-39.527195"
         cx="171.41742"
         id="ellipse1112"
         style="display:inline;opacity:1;fill:url(#radialGradient1181);fill-opacity:1;stroke:none;stroke-width:2.0102;stroke-linecap:round;stroke-linejoin:round;stroke-opacity:1;paint-order:stroke fill markers"
         rx="22.23316"
         ry="20.346327" />
      <ellipse
         transform="rotate(21.854507)"
         ry="5.1394901"
         rx="11.339229"
         cy="-87.887398"
         cx="143.91231"
         id="ellipse1114"
         style="fill:#000b19;fill-opacity:0.360544;stroke:none;stroke-width:0.889091;stroke-linecap:round;stroke-linejoin:round;stroke-miterlimit:4;stroke-dasharray:none;stroke-opacity:1;paint-order:stroke fill markers" />
      <g
         style="display:inline;opacity:1"
         transform="matrix(0.58529555,0,0,0.58529555,98.812326,-75.669937)"
         id="g1154">
        <path
           inkscape:connector-curvature="0"
           id="path1116"
           style="opacity:1;fill:url(#radialGradient1183);fill-opacity:1;stroke:none;stroke-width:0.259159px;stroke-linecap:butt;stroke-linejoin:miter;stroke-opacity:1;stop-opacity:1"
           d="m 119.33132,42.082996 c -0.72999,-5.29e-4 -1.4979,0.343194 -2.31518,1.177705 -1.60296,1.636742 -2.80555,8.171744 -5.59005,6.166033 -13.512938,-11.236523 -10.33386,6.172009 -7.02736,12.324829 1.69782,3.839699 -6.050401,4.58961 -4.720568,9.100219 -1.124311,2.56065 -2.961393,5.109501 -1.757707,8.379851 4.111735,-6.798669 9.468285,-5.828188 15.487105,-3.855579 3.53175,1.030597 7.18855,0.781089 10.65812,-0.315744 l 0.70881,-4.506184 c -0.0279,-0.584658 -0.19996,-1.167861 -0.28343,-1.75183 -0.89785,-0.286819 -1.82539,-0.484402 -2.67746,-0.908471 -0.51314,-0.144592 -0.88165,-0.540181 -1.28058,-0.88315 -0.10892,-0.258461 -0.074,-0.598625 -0.12963,-0.887286 -0.13691,-0.411109 0.13639,-0.749567 0.28292,-1.110527 -0.0939,-0.744138 -0.34107,-1.47687 -0.28194,-2.232422 -0.11511,-0.875509 0.14577,-1.644782 0.85273,-2.155423 l -0.0548,-3.04891 1.12284,1.406117 -0.25286,-2.289267 c 1.34017,0.97894 2.66831,1.593583 3.66574,2.954343 4.2115,-0.304914 5.2272,5.905619 7.99839,10.343036 2.41472,-1.79002 4.40198,-4.283496 6.03662,-6.942212 4.02895,-4.87575 17.46553,-5.309902 17.41192,-10.997261 -8.81559,4.2241 -13.88151,-2.862196 -20.27965,-9.193236 -3.05843,-2.26836 -5.45066,2.981217 -7.3443,6.224426 -3.45752,3.042468 -6.28785,-6.996009 -10.22977,-6.999057 z" />
        <g
           id="g1152">
          <circle
             style="opacity:1;fill:#ffffff;fill-opacity:1;stroke:none;stroke-width:0.831545;stroke-linecap:round;stroke-linejoin:round;stroke-miterlimit:4;stroke-dasharray:none;stroke-opacity:1;paint-order:stroke fill markers;stop-opacity:1"
             id="circle1118"
             cx="119.81845"
             cy="46.337517"
             r="0.64964652" />
          <circle
             r="0.64964652"
             cy="55.597935"
             cx="134.72488"
             id="circle1120"
             style="opacity:1;fill:#ffffff;fill-opacity:1;stroke:none;stroke-width:0.831545;stroke-linecap:round;stroke-linejoin:round;stroke-miterlimit:4;stroke-dasharray:none;stroke-opacity:1;paint-order:stroke fill markers;stop-opacity:1" />
          <circle
             style="opacity:1;fill:#ffffff;fill-opacity:1;stroke:none;stroke-width:0.831545;stroke-linecap:round;stroke-linejoin:round;stroke-miterlimit:4;stroke-dasharray:none;stroke-opacity:1;paint-order:stroke fill markers;stop-opacity:1"
             id="circle1122"
             cx="108.45554"
             cy="56.306641"
             r="0.64964652" />
          <circle
             r="0.49609369"
             cy="54.593933"
             cx="114.12518"
             id="circle1124"
             style="opacity:1;fill:#ffffff;fill-opacity:1;stroke:none;stroke-width:0.634998;stroke-linecap:round;stroke-linejoin:round;stroke-miterlimit:4;stroke-dasharray:none;stroke-opacity:1;paint-order:stroke fill markers;stop-opacity:1" />
          <circle
             style="opacity:1;fill:#ffffff;fill-opacity:1;stroke:none;stroke-width:0.634998;stroke-linecap:round;stroke-linejoin:round;stroke-miterlimit:4;stroke-dasharray:none;stroke-opacity:1;paint-order:stroke fill markers;stop-opacity:1"
             id="circle1126"
             cx="104.06157"
             cy="68.460938"
             r="0.49609369" />
          <circle
             r="0.72051704"
             cy="69.512184"
             cx="111.71558"
             id="circle1128"
             style="opacity:1;fill:#ffffff;fill-opacity:1;stroke:none;stroke-width:0.922259;stroke-linecap:round;stroke-linejoin:round;stroke-miterlimit:4;stroke-dasharray:none;stroke-opacity:1;paint-order:stroke fill markers;stop-opacity:1" />
          <circle
             style="opacity:1;fill:#ffffff;fill-opacity:1;stroke:none;stroke-width:0.619879;stroke-linecap:round;stroke-linejoin:round;stroke-miterlimit:4;stroke-dasharray:none;stroke-opacity:1;paint-order:stroke fill markers;stop-opacity:1"
             id="circle1130"
             cx="113.34561"
             cy="79.221451"
             r="0.48428193" />
          <circle
             r="0.34254086"
             cy="78.512749"
             cx="117.99944"
             id="circle1132"
             style="opacity:1;fill:#ffffff;fill-opacity:1;stroke:none;stroke-width:0.438451;stroke-linecap:round;stroke-linejoin:round;stroke-miterlimit:4;stroke-dasharray:none;stroke-opacity:1;paint-order:stroke fill markers;stop-opacity:1" />
          <circle
             style="opacity:1;fill:#ffffff;fill-opacity:1;stroke:none;stroke-width:0.438451;stroke-linecap:round;stroke-linejoin:round;stroke-miterlimit:4;stroke-dasharray:none;stroke-opacity:1;paint-order:stroke fill markers;stop-opacity:1"
             id="circle1134"
             cx="119.74758"
             cy="82.599617"
             r="0.34254086" />
          <circle
             r="0.95675218"
             cy="74.355011"
             cx="141.85919"
             id="circle1136"
             style="opacity:1;fill:#ffffff;fill-opacity:1;stroke:none;stroke-width:1.22464;stroke-linecap:round;stroke-linejoin:round;stroke-miterlimit:4;stroke-dasharray:none;stroke-opacity:1;paint-order:stroke fill markers;stop-opacity:1" />
          <circle
             style="opacity:1;fill:#ffffff;fill-opacity:1;stroke:none;stroke-width:0.710594;stroke-linecap:round;stroke-linejoin:round;stroke-miterlimit:4;stroke-dasharray:none;stroke-opacity:1;paint-order:stroke fill markers;stop-opacity:1"
             id="circle1138"
             cx="148.59189"
             cy="64.055161"
             r="0.55515248" />
          <circle
             r="0.44884667"
             cy="55.822369"
             cx="140.74889"
             id="circle1140"
             style="opacity:1;fill:#ffffff;fill-opacity:1;stroke:none;stroke-width:0.574523;stroke-linecap:round;stroke-linejoin:round;stroke-miterlimit:4;stroke-dasharray:none;stroke-opacity:1;paint-order:stroke fill markers;stop-opacity:1" />
          <circle
             style="opacity:1;fill:#ffffff;fill-opacity:1;stroke:none;stroke-width:0.574523;stroke-linecap:round;stroke-linejoin:round;stroke-miterlimit:4;stroke-dasharray:none;stroke-opacity:1;paint-order:stroke fill markers;stop-opacity:1"
             id="circle1142"
             cx="139.73308"
             cy="42.782188"
             r="0.44884667" />
          <circle
             r="0.44884667"
             cy="40.774189"
             cx="128.34654"
             id="circle1144"
             style="opacity:1;fill:#ffffff;fill-opacity:1;stroke:none;stroke-width:0.574523;stroke-linecap:round;stroke-linejoin:round;stroke-miterlimit:4;stroke-dasharray:none;stroke-opacity:1;paint-order:stroke fill markers;stop-opacity:1" />
          <circle
             style="opacity:1;fill:#ffffff;fill-opacity:1;stroke:none;stroke-width:0.46869;stroke-linecap:round;stroke-linejoin:round;stroke-miterlimit:4;stroke-dasharray:none;stroke-opacity:1;paint-order:stroke fill markers;stop-opacity:1"
             id="circle1146"
             cx="122.51154"
             cy="36.840874"
             r="0.36616439" />
          <circle
             r="0.48428196"
             cy="43.337337"
             cx="108.1012"
             id="circle1148"
             style="opacity:1;fill:#ffffff;fill-opacity:1;stroke:none;stroke-width:0.61988;stroke-linecap:round;stroke-linejoin:round;stroke-miterlimit:4;stroke-dasharray:none;stroke-opacity:1;paint-order:stroke fill markers;stop-opacity:1" />
          <circle
             r="0.4750073"
             cy="58.676743"
             cx="96.729767"
             id="circle1150"
             style="opacity:1;fill:#ffffff;fill-opacity:1;stroke:none;stroke-width:0.608007;stroke-linecap:round;stroke-linejoin:round;stroke-miterlimit:4;stroke-dasharray:none;stroke-opacity:1;paint-order:stroke fill markers;stop-opacity:1" />
        </g>
      </g>
      <path
         sodipodi:nodetypes="ccccccccc"
         inkscape:connector-curvature="0"
         id="path1156"
         d="m 177.93965,-74.651581 1.20197,-3.170392 c 2.1963,-3.271457 13.07351,2.06819 12.04256,4.72307 l -1.35163,3.413254 -3.1285,6.673769 -0.27188,0.461095 c -0.9682,1.515883 -10.92964,-1.846371 -10.92528,-4.649112 l 0.78963,-2.142037 z"
         style="opacity:0.163375;fill:url(#linearGradient1185);fill-opacity:1;stroke:none;stroke-width:0.261301px;stroke-linecap:butt;stroke-linejoin:miter;stroke-opacity:1" />
      <ellipse
         transform="rotate(-1.1180376)"
         ry="3.4552791"
         rx="4.2023258"
         cy="-51.800861"
         cx="165.69482"
         id="ellipse1158"
         style="fill:#476978;fill-opacity:0.359091;stroke:none;stroke-width:2.29804;stroke-linecap:round;stroke-linejoin:round;stroke-miterlimit:4;stroke-dasharray:none;stroke-opacity:1;paint-order:stroke fill markers" />
      <path
         inkscape:connector-curvature="0"
         d="m 185.83187,-77.909623 c -2.72375,-1.087256 -5.66085,-1.445752 -6.69037,0.08775 l -1.20196,3.17039 -0.14389,0.465665 a 6.7034777,1.519883 21.854507 0 0 5.47998,3.281371 6.7034777,1.519883 21.854507 0 0 6.50173,1.337674 l 0.0551,-0.118735 1.35125,-3.413402 c 0.54769,-1.410407 -2.26514,-3.578561 -5.35207,-4.810768 z"
         style="fill:url(#linearGradient1188);fill-opacity:1;stroke:none;stroke-width:0.261301px;stroke-linecap:butt;stroke-linejoin:miter;stroke-opacity:1"
         id="path1160" />
      <path
         inkscape:connector-curvature="0"
         d="m 185.83187,-77.909623 c -2.72375,-1.087256 -5.66085,-1.445752 -6.69037,0.08775 l -0.0276,0.07413 c 0.18137,2.541192 9.97226,5.83693 12.06831,4.654338 l 0.002,-0.0053 c 0.54769,-1.410408 -2.26514,-3.578561 -5.35207,-4.810769 z"
         style="fill:#9d7034;fill-opacity:1;stroke:none;stroke-width:0.261301px;stroke-linecap:butt;stroke-linejoin:miter;stroke-opacity:1"
         id="path1162" />
      <path
         inkscape:connector-curvature="0"
         d="m 178.43907,-72.844275 -1.75093,4.365552 a 7.9234606,2.0174511 21.854507 0 0 3.43192,1.882569 l 1.75111,-4.36603 a 7.9234608,2.017451 21.854507 0 1 -3.4321,-1.882091 z"
         style="opacity:1;fill:#476978;fill-opacity:0.565909;stroke:none;stroke-width:0.529167;stroke-linecap:round;stroke-linejoin:round;stroke-miterlimit:4;stroke-dasharray:none;stroke-opacity:1;paint-order:stroke fill markers"
         id="path1164" />
      <path
         inkscape:connector-curvature="0"
         d="m 177.7548,-67.806492 -4.01795,10.017941 c 0.39456,0.434078 0.86923,0.804617 1.41845,1.083366 l 4.12567,-10.286528 a 7.9234606,2.0174512 21.854507 0 1 -1.52617,-0.814779 z"
         style="opacity:1;fill:#476978;fill-opacity:0.456818;stroke:none;stroke-width:0.407826;stroke-linecap:round;stroke-linejoin:round;stroke-miterlimit:4;stroke-dasharray:none;stroke-opacity:1;paint-order:stroke fill markers"
         id="path1166" />
      <path
         inkscape:connector-curvature="0"
         d="m 190.20697,-68.852727 a 7.9234608,2.017451 21.854507 0 1 -5.16668,-0.8835 l -1.7511,4.366032 a 7.9234606,2.0174511 21.854507 0 0 5.16666,0.883501 z"
         style="opacity:1;fill:#000000;fill-opacity:0.26494;stroke:none;stroke-width:0.621183;stroke-linecap:round;stroke-linejoin:round;stroke-miterlimit:4;stroke-dasharray:none;stroke-opacity:1;paint-order:stroke fill markers"
         id="path1168" />
      <path
         inkscape:connector-curvature="0"
         d="m 187.03978,-64.505664 a 7.9234606,2.0174511 21.854507 0 1 -2.79739,-0.575767 l -4.13087,10.299481 c 1.10693,0.229554 2.22688,0.06617 3.19463,-0.414662 z"
         style="opacity:1;fill:#000000;fill-opacity:0.195219;stroke:none;stroke-width:0.770506;stroke-linecap:round;stroke-linejoin:round;stroke-miterlimit:4;stroke-dasharray:none;stroke-opacity:1;paint-order:stroke fill markers"
         id="path1170" />
      <path
         sodipodi:nodetypes="cccc"
         inkscape:connector-curvature="0"
         id="path1172"
         d="m 180.39733,-55.210892 c 10.73043,16.960585 6.49921,22.215081 -0.3367,32.02462 10.8172,-7.705953 16.28974,-17.226315 3.84485,-32.829301 -0.97644,0.859267 -2.08916,1.30105 -3.50815,0.804681 z"
         style="fill:#000000;fill-opacity:0.24263;stroke:none;stroke-width:0.278786px;stroke-linecap:butt;stroke-linejoin:miter;stroke-opacity:1" />
      <path
         sodipodi:nodetypes="cc"
         inkscape:connector-curvature="0"
         id="path1175"
         d="m 172.49116,-61.533409 c 0.0555,5.140511 8.09517,8.935697 12.49974,4.953755"
         style="fill:none;stroke:#223642;stroke-width:0.613202;stroke-linecap:round;stroke-linejoin:miter;stroke-miterlimit:4;stroke-dasharray:none;stroke-opacity:1" />
      <path
         sodipodi:nodetypes="cccc"
         inkscape:connector-curvature="0"
         id="path1177"
         d="m 177.91239,-74.531472 1.38647,-3.614017 c 3.13586,-3.318213 12.54157,2.091246 12.07487,4.666553 l -1.46033,3.60959"
         style="fill:none;stroke:#4f2614;stroke-width:1.4570311;stroke-linecap:round;stroke-linejoin:miter;stroke-miterlimit:4;stroke-dasharray:none;stroke-opacity:1" />
      <path
         sodipodi:nodetypes="cc"
         inkscape:connector-curvature="0"
         id="path1190"
         d="m 174.80025,-69.414734 c 2.4485,2.49136 9.44788,5.62431 13.74503,5.45689"
         style="display:inline;opacity:1;fill:none;stroke:#476978;stroke-width:1.06156;stroke-linecap:round;stroke-linejoin:miter;stroke-miterlimit:4;stroke-dasharray:6.36933, 6.36933;stroke-dashoffset:0.106156;stroke-opacity:1" />
    </g>
  </g>
</svg>
