<?xml version="1.0" encoding="UTF-8" standalone="no"?>
<!-- Created with Inkscape (http://www.inkscape.org/) -->

<svg
   width="192"
   height="257"
   viewBox="0 0 50.8 67.997919"
   version="1.1"
   id="svg291"
   inkscape:version="1.2 (dc2aedaf03, 2022-05-15)"
   xml:space="preserve"
   sodipodi:docname="logo.svg"
   xmlns:inkscape="http://www.inkscape.org/namespaces/inkscape"
   xmlns:sodipodi="http://sodipodi.sourceforge.net/DTD/sodipodi-0.dtd"
   xmlns:xlink="http://www.w3.org/1999/xlink"
   xmlns="http://www.w3.org/2000/svg"
   xmlns:svg="http://www.w3.org/2000/svg"><sodipodi:namedview
     id="namedview293"
     pagecolor="#ffffff"
     bordercolor="#666666"
     borderopacity="1.0"
     inkscape:pageshadow="2"
     inkscape:pageopacity="0.0"
     inkscape:pagecheckerboard="0"
     inkscape:document-units="px"
     showgrid="false"
     width="1920px"
     units="px"
     borderlayer="true"
     inkscape:showpageshadow="false"
     inkscape:deskcolor="#d1d1d1"
     inkscape:zoom="2.8284271"
     inkscape:cx="292.56543"
     inkscape:cy="150.9673"
     inkscape:window-width="2560"
     inkscape:window-height="1377"
     inkscape:window-x="-8"
     inkscape:window-y="-8"
     inkscape:window-maximized="1"
     inkscape:current-layer="layer1" /><defs
     id="defs288"><linearGradient
       id="linearGradient1215"
       inkscape:collect="always"><stop
         id="stop1209"
         offset="0"
         style="stop-color:#000000;stop-opacity:1;" /><stop
         style="stop-color:#000000;stop-opacity:0.73922902"
         offset="0.62545574"
         id="stop1211" /><stop
         id="stop1213"
         offset="1"
         style="stop-color:#000000;stop-opacity:0;" /></linearGradient><linearGradient
       inkscape:collect="always"
       id="linearGradient943-3"><stop
         style="stop-color:#ffcc00;stop-opacity:1"
         offset="0"
         id="stop1541" /><stop
         id="stop1550"
         offset="0.1983175"
         style="stop-color:#ffc303;stop-opacity:1;" /><stop
         id="stop1543"
         offset="0.5735628"
         style="stop-color:#ff0049;stop-opacity:1" /><stop
         style="stop-color:#8e0075;stop-opacity:1;"
         offset="0.77180046"
         id="stop1548" /><stop
         style="stop-color:#110c2c;stop-opacity:1"
         offset="1"
         id="stop1545" /></linearGradient><linearGradient
       id="linearGradient1187"
       inkscape:collect="always"><stop
         id="stop1183"
         offset="0"
         style="stop-color:#8c511c;stop-opacity:1;" /><stop
         id="stop1185"
         offset="1"
         style="stop-color:#76401b;stop-opacity:1" /></linearGradient><linearGradient
       inkscape:collect="always"
       id="linearGradient1277"><stop
         style="stop-color:#76401b;stop-opacity:1"
         offset="0"
         id="stop1273" /><stop
         id="stop1279"
         offset="0.092835"
         style="stop-color:#8b501b;stop-opacity:1;" /><stop
         style="stop-color:#76401b;stop-opacity:1"
         offset="1"
         id="stop1275" /></linearGradient><radialGradient
       inkscape:collect="always"
       xlink:href="#linearGradient1215"
       id="radialGradient3938"
       gradientUnits="userSpaceOnUse"
       gradientTransform="matrix(1.9795118,0,0,1.8115186,-345.36858,41.48012)"
       cx="120.5744"
       cy="67.941216"
       fx="120.5744"
       fy="67.941216"
       r="11.197545" /><radialGradient
       inkscape:collect="always"
       xlink:href="#linearGradient943-3"
       id="radialGradient3940"
       gradientUnits="userSpaceOnUse"
       gradientTransform="matrix(0.11515796,-0.12602145,0.16160747,0.16231822,-258.3789,211.15323)"
       cx="604.08124"
       cy="544.13409"
       fx="604.08124"
       fy="544.13409"
       r="118.69671" /><linearGradient
       inkscape:collect="always"
       xlink:href="#linearGradient1187"
       id="linearGradient3942"
       gradientUnits="userSpaceOnUse"
       gradientTransform="matrix(0.92531467,0.37112095,-0.37112095,0.92531467,-280.5414,137.69448)"
       x1="164.79208"
       y1="-73.120895"
       x2="177.74342"
       y2="-73.120895" /><linearGradient
       inkscape:collect="always"
       xlink:href="#linearGradient1277"
       id="linearGradient3944"
       gradientUnits="userSpaceOnUse"
       gradientTransform="matrix(0.92531467,0.37112095,-0.37112095,0.92531467,-280.5414,137.69448)"
       x1="164.79208"
       y1="-73.120895"
       x2="177.74342"
       y2="-73.120895" /></defs><g
     inkscape:label="Layer 1"
     inkscape:groupmode="layer"
     id="layer1"
     transform="translate(-222.50646,-87.537019)"><g
       id="g4090"
       transform="matrix(1.0968504,0,0,1.0968504,364.7238,-48.713228)"><path
         inkscape:connector-curvature="0"
         d="m -93.563306,129.99856 a 7.8994081,2.011327 21.854507 0 0 -8.072564,-1.07008 7.8994081,2.011327 21.854507 0 0 -0.0184,0.0542 l -1.70282,4.24567 a 7.8994081,2.011327 21.854507 0 0 -0.0243,0.0524 7.8994081,2.011327 21.854507 0 0 0.68637,1.40545 l -2.61035,6.50836 c -0.0503,0.12564 -0.091,0.25254 -0.13056,0.3795 a 21.449886,21.449886 0 0 0 -20.99314,13.43789 21.449886,21.449886 0 0 0 11.92393,27.89296 21.449886,21.449886 0 0 0 27.89277,-11.92346 21.449886,21.449886 0 0 0 -5.985804,-24.30234 c 0.05234,-0.10759 0.105519,-0.21465 0.150791,-0.32753 l 2.675543,-6.67094 a 7.8994081,2.011327 21.854507 0 0 1.053991,-0.5187 7.8994081,2.011327 21.854507 0 0 0.004,-0.0128 l 9.67e-4,3.8e-4 1.74061,-4.33987 a 7.8994081,2.011327 21.854507 0 0 0.003,-0.008 7.8994081,2.011327 21.854507 0 0 -6.585937,-4.8002 7.8994081,2.011327 21.854507 0 0 -0.009,-0.003 z"
         style="fill:none;fill-opacity:1;stroke:#476978;stroke-width:3.37709;stroke-linecap:round;stroke-linejoin:round;stroke-miterlimit:4;stroke-dasharray:none;stroke-opacity:1;paint-order:stroke fill markers"
         id="path3858" /><circle
         transform="rotate(21.854507)"
         style="fill:#142632;fill-opacity:1;stroke:none;stroke-width:2.49815;stroke-linecap:round;stroke-linejoin:round;stroke-miterlimit:4;stroke-dasharray:none;stroke-opacity:1;paint-order:stroke fill markers"
         id="circle3860"
         cx="-38.189655"
         cy="190.9348"
         r="21.449886" /><rect
         transform="rotate(21.854507)"
         ry="4.9392762"
         y="157.61858"
         x="-45.177776"
         height="17.56777"
         width="13.853778"
         id="rect3862"
         style="fill:#142632;fill-opacity:1;stroke:none;stroke-width:2.79415;stroke-linecap:round;stroke-linejoin:round;stroke-miterlimit:4;stroke-dasharray:none;stroke-opacity:1;paint-order:stroke fill markers" /><path
         inkscape:connector-curvature="0"
         d="m -93.563525,129.99847 a 7.8994082,2.011327 21.854507 0 0 -8.072125,-1.07 7.8994082,2.011327 21.854507 0 0 -0.0186,0.0544 l -1.70274,4.2454 a 7.8994082,2.011327 21.854507 0 0 -0.0244,0.0528 7.8994082,2.011327 21.854507 0 0 6.582995,4.8071 7.8994082,2.011327 21.854507 0 0 8.080237,1.07396 7.8994082,2.011327 21.854507 0 0 0.004,-0.0128 l 5.98e-4,2.4e-4 1.74065,-4.33996 a 7.8994082,2.011327 21.854507 0 0 0.003,-0.008 7.8994082,2.011327 21.854507 0 0 -6.585847,-4.79991 7.8994082,2.011327 21.854507 0 0 -0.009,-0.003 z"
         style="fill:#142632;fill-opacity:1;stroke:none;stroke-width:3.30132;stroke-linecap:round;stroke-linejoin:round;stroke-miterlimit:4;stroke-dasharray:none;stroke-opacity:1;paint-order:stroke fill markers"
         id="path3864" /><ellipse
         transform="rotate(21.854507)"
         ry="2.0113268"
         rx="7.8994083"
         cy="157.49635"
         cx="-38.438469"
         id="ellipse3866"
         style="fill:#1b3140;fill-opacity:1;stroke:none;stroke-width:3.30132;stroke-linecap:round;stroke-linejoin:round;stroke-miterlimit:4;stroke-dasharray:none;stroke-opacity:1;paint-order:stroke fill markers" /><ellipse
         cy="164.5569"
         cx="-106.69012"
         id="ellipse3868"
         style="display:inline;fill:url(#radialGradient3938);fill-opacity:1;stroke:none;stroke-width:2.0041;stroke-linecap:round;stroke-linejoin:round;stroke-opacity:1;paint-order:stroke fill markers"
         rx="22.165668"
         ry="20.284563" /><ellipse
         transform="rotate(21.854507)"
         ry="5.1238885"
         rx="11.304807"
         cy="205.01714"
         cx="-38.236294"
         id="ellipse3870"
         style="fill:#000b19;fill-opacity:0.360544;stroke:none;stroke-width:0.886392;stroke-linecap:round;stroke-linejoin:round;stroke-miterlimit:4;stroke-dasharray:none;stroke-opacity:1;paint-order:stroke fill markers" /><g
         id="g4049"
         transform="translate(0.37417735,-49.009362)"><path
           id="path3872"
           style="fill:url(#radialGradient3940);fill-opacity:1;stroke:none;stroke-width:0.151224px;stroke-linecap:butt;stroke-linejoin:miter;stroke-opacity:1"
           d="m -109.44293,202.57162 c -0.42596,-3.1e-4 -0.87393,0.20035 -1.35083,0.68729 -0.93536,0.95507 -1.637,4.7686 -3.26181,3.59823 -7.88504,-6.55671 -6.02993,3.60153 -4.10053,7.19181 0.99071,2.24054 -3.53085,2.67773 -2.75487,5.30976 -0.65605,1.49419 -1.72764,2.98183 -1.02526,4.89014 2.39927,-3.96715 5.52456,-3.40105 9.03666,-2.24999 1.90197,0.55501 3.86597,0.47244 5.749,-0.0465 0.29128,-1.45912 0.3957,-2.80553 0.009,-3.59203 -0.12758,-0.007 -0.41936,-0.0939 -0.74982,-0.1819 -0.0609,-0.0162 -0.63543,0.0447 -0.70073,0.0367 -0.0653,-0.008 -0.35663,-0.068 -0.46044,-0.11472 -0.10381,-0.0467 -0.66239,-0.51846 -0.71469,-0.56896 -0.0523,-0.0505 -0.22879,-0.36258 -0.24029,-0.43718 -0.011,-0.0746 -0.006,-0.2827 -0.002,-0.3111 0.004,-0.0284 -0.0662,-0.13073 -0.0816,-0.17983 -0.0149,-0.0491 -0.0159,-0.26603 -0.0129,-0.34003 0.003,-0.0741 0.25245,-0.33888 0.32195,-0.44183 0.0695,-0.10295 0.33822,-0.56925 0.37052,-0.67076 0.0325,-0.1015 -0.0286,-0.60596 -0.006,-0.67076 0.0224,-0.0648 0.61095,-0.71031 0.61495,-0.72451 0.003,-0.0141 -0.0677,-0.39029 -0.0847,-0.46509 -0.0172,-0.0748 -0.17419,-0.46311 -0.20619,-0.52141 -0.0321,-0.0583 -0.10011,-0.44359 -0.0651,-0.46509 0.0351,-0.0215 0.0534,0.0192 0.1943,0.21859 0.1408,0.19924 1.18766,0.55812 1.3901,0.65733 h 5.1e-4 c 9.9e-4,-1.7e-4 1.05081,-0.17731 1.10898,-0.20929 0.0583,-0.032 0.17231,-0.18747 0.22221,-0.29973 0.0499,-0.11225 0.31801,-0.71844 0.32401,-0.86661 0.006,-0.14816 0.20815,-0.38029 0.27595,-0.5147 0.0679,-0.13443 0.32166,-0.1983 0.43563,-0.1943 0.11398,0.004 0.43291,0.31861 0.46871,0.4284 0.0358,0.10978 0.26859,0.59203 0.29559,0.63303 0.027,0.041 0.17238,0.57174 0.18758,0.62374 0.0152,0.0519 -0.0253,0.22701 0.0284,0.31471 0.0538,0.0876 0.20506,0.45875 0.24236,0.52865 0.0373,0.0699 0.19207,0.50344 0.22427,0.55604 0.0323,0.0526 0.59585,0.70717 0.69919,0.84232 0.10333,0.13514 0.36829,0.66474 0.47077,0.82269 0.10248,0.15794 0.35509,0.58419 0.41909,0.70073 0.0641,0.11655 0.21765,0.72725 0.26045,0.80305 0.0428,0.0758 0.17412,0.22887 0.31885,0.32557 0.14473,0.0968 0.57685,0.58668 0.69815,0.69969 0.0475,0.0443 0.1025,0.14376 0.15244,0.25322 1.276329,-1.02304 2.340539,-2.38019 3.226677,-3.82147 2.350966,-2.84509 10.191386,-3.09851 10.160104,-6.41718 -5.144058,2.46483 -8.100472,-1.67026 -11.833904,-5.36453 -1.784647,-1.32363 -3.180547,1.73935 -4.285527,3.63182 -2.01753,1.77533 -3.66897,-4.08221 -5.96914,-4.08399 z" /><g
           id="g3908"
           transform="matrix(0.58351882,0,0,0.58351882,-179.07481,178.01554)"><circle
             style="opacity:1;fill:#ffffff;fill-opacity:1;stroke:none;stroke-width:0.831545;stroke-linecap:round;stroke-linejoin:round;stroke-miterlimit:4;stroke-dasharray:none;stroke-opacity:1;paint-order:stroke fill markers;stop-opacity:1"
             id="circle3874"
             cx="119.81845"
             cy="46.337517"
             r="0.64964652" /><circle
             r="0.64964652"
             cy="55.597935"
             cx="134.72488"
             id="circle3876"
             style="opacity:1;fill:#ffffff;fill-opacity:1;stroke:none;stroke-width:0.831545;stroke-linecap:round;stroke-linejoin:round;stroke-miterlimit:4;stroke-dasharray:none;stroke-opacity:1;paint-order:stroke fill markers;stop-opacity:1" /><circle
             style="opacity:1;fill:#ffffff;fill-opacity:1;stroke:none;stroke-width:0.831545;stroke-linecap:round;stroke-linejoin:round;stroke-miterlimit:4;stroke-dasharray:none;stroke-opacity:1;paint-order:stroke fill markers;stop-opacity:1"
             id="circle3878"
             cx="108.45554"
             cy="56.306641"
             r="0.64964652" /><circle
             r="0.49609369"
             cy="54.593933"
             cx="114.12518"
             id="circle3880"
             style="opacity:1;fill:#ffffff;fill-opacity:1;stroke:none;stroke-width:0.634998;stroke-linecap:round;stroke-linejoin:round;stroke-miterlimit:4;stroke-dasharray:none;stroke-opacity:1;paint-order:stroke fill markers;stop-opacity:1" /><circle
             style="opacity:1;fill:#ffffff;fill-opacity:1;stroke:none;stroke-width:0.634998;stroke-linecap:round;stroke-linejoin:round;stroke-miterlimit:4;stroke-dasharray:none;stroke-opacity:1;paint-order:stroke fill markers;stop-opacity:1"
             id="circle3882"
             cx="104.06157"
             cy="68.460938"
             r="0.49609369" /><circle
             r="0.72051704"
             cy="69.512184"
             cx="111.71558"
             id="circle3884"
             style="opacity:1;fill:#ffffff;fill-opacity:1;stroke:none;stroke-width:0.922259;stroke-linecap:round;stroke-linejoin:round;stroke-miterlimit:4;stroke-dasharray:none;stroke-opacity:1;paint-order:stroke fill markers;stop-opacity:1" /><circle
             style="opacity:1;fill:#ffffff;fill-opacity:1;stroke:none;stroke-width:0.619879;stroke-linecap:round;stroke-linejoin:round;stroke-miterlimit:4;stroke-dasharray:none;stroke-opacity:1;paint-order:stroke fill markers;stop-opacity:1"
             id="circle3886"
             cx="113.34561"
             cy="79.221451"
             r="0.48428193" /><circle
             r="0.34254086"
             cy="78.512749"
             cx="117.99944"
             id="circle3888"
             style="opacity:1;fill:#ffffff;fill-opacity:1;stroke:none;stroke-width:0.438451;stroke-linecap:round;stroke-linejoin:round;stroke-miterlimit:4;stroke-dasharray:none;stroke-opacity:1;paint-order:stroke fill markers;stop-opacity:1" /><circle
             style="opacity:1;fill:#ffffff;fill-opacity:1;stroke:none;stroke-width:0.438451;stroke-linecap:round;stroke-linejoin:round;stroke-miterlimit:4;stroke-dasharray:none;stroke-opacity:1;paint-order:stroke fill markers;stop-opacity:1"
             id="circle3890"
             cx="119.74758"
             cy="82.599617"
             r="0.34254086" /><circle
             r="0.95675218"
             cy="74.355011"
             cx="141.85919"
             id="circle3892"
             style="opacity:1;fill:#ffffff;fill-opacity:1;stroke:none;stroke-width:1.22464;stroke-linecap:round;stroke-linejoin:round;stroke-miterlimit:4;stroke-dasharray:none;stroke-opacity:1;paint-order:stroke fill markers;stop-opacity:1" /><circle
             style="opacity:1;fill:#ffffff;fill-opacity:1;stroke:none;stroke-width:0.710594;stroke-linecap:round;stroke-linejoin:round;stroke-miterlimit:4;stroke-dasharray:none;stroke-opacity:1;paint-order:stroke fill markers;stop-opacity:1"
             id="circle3894"
             cx="148.59189"
             cy="64.055161"
             r="0.55515248" /><circle
             r="0.44884667"
             cy="55.822369"
             cx="140.74889"
             id="circle3896"
             style="opacity:1;fill:#ffffff;fill-opacity:1;stroke:none;stroke-width:0.574523;stroke-linecap:round;stroke-linejoin:round;stroke-miterlimit:4;stroke-dasharray:none;stroke-opacity:1;paint-order:stroke fill markers;stop-opacity:1" /><circle
             style="opacity:1;fill:#ffffff;fill-opacity:1;stroke:none;stroke-width:0.574523;stroke-linecap:round;stroke-linejoin:round;stroke-miterlimit:4;stroke-dasharray:none;stroke-opacity:1;paint-order:stroke fill markers;stop-opacity:1"
             id="circle3898"
             cx="139.73308"
             cy="42.782188"
             r="0.44884667" /><circle
             r="0.44884667"
             cy="40.774189"
             cx="128.34654"
             id="circle3900"
             style="opacity:1;fill:#ffffff;fill-opacity:1;stroke:none;stroke-width:0.574523;stroke-linecap:round;stroke-linejoin:round;stroke-miterlimit:4;stroke-dasharray:none;stroke-opacity:1;paint-order:stroke fill markers;stop-opacity:1" /><circle
             style="opacity:1;fill:#ffffff;fill-opacity:1;stroke:none;stroke-width:0.46869;stroke-linecap:round;stroke-linejoin:round;stroke-miterlimit:4;stroke-dasharray:none;stroke-opacity:1;paint-order:stroke fill markers;stop-opacity:1"
             id="circle3902"
             cx="122.51154"
             cy="36.840874"
             r="0.36616439" /><circle
             r="0.48428196"
             cy="43.337337"
             cx="108.1012"
             id="circle3904"
             style="opacity:1;fill:#ffffff;fill-opacity:1;stroke:none;stroke-width:0.61988;stroke-linecap:round;stroke-linejoin:round;stroke-miterlimit:4;stroke-dasharray:none;stroke-opacity:1;paint-order:stroke fill markers;stop-opacity:1" /><circle
             r="0.4750073"
             cy="58.676743"
             cx="96.729767"
             id="circle3906"
             style="opacity:1;fill:#ffffff;fill-opacity:1;stroke:none;stroke-width:0.608007;stroke-linecap:round;stroke-linejoin:round;stroke-miterlimit:4;stroke-dasharray:none;stroke-opacity:1;paint-order:stroke fill markers;stop-opacity:1" /></g></g><path
         sodipodi:nodetypes="ccccccccc"
         inkscape:connector-curvature="0"
         id="path3912"
         d="m -100.18769,129.53914 1.198326,-3.16077 c 2.189633,-3.26152 13.033824,2.06192 12.006003,4.70874 l -1.347527,3.40289 -3.119003,6.65351 -0.271054,0.45969 c -0.965261,1.51129 -10.896465,-1.84076 -10.892115,-4.63499 l 0.78723,-2.13554 z"
         style="opacity:0.163375;fill:url(#linearGradient3942);fill-opacity:1;stroke:none;stroke-width:0.260508px;stroke-linecap:butt;stroke-linejoin:miter;stroke-opacity:1" /><ellipse
         transform="rotate(-1.1180377)"
         ry="3.4447901"
         rx="4.189569"
         cy="146.86533"
         cx="-116.32228"
         id="ellipse3914"
         style="fill:#476978;fill-opacity:0.359091;stroke:none;stroke-width:2.29106;stroke-linecap:round;stroke-linejoin:round;stroke-miterlimit:4;stroke-dasharray:none;stroke-opacity:1;paint-order:stroke fill markers" /><path
         inkscape:connector-curvature="0"
         d="m -92.319423,126.29099 c -2.715482,-1.08396 -5.643666,-1.44136 -6.670061,0.0875 l -1.198316,3.16077 -0.14345,0.46425 a 6.6831286,1.5152692 21.854507 0 0 5.463347,3.27141 6.6831286,1.5152692 21.854507 0 0 6.481993,1.33361 l 0.05493,-0.11837 1.347148,-3.40304 c 0.546027,-1.40613 -2.258264,-3.5677 -5.335823,-4.79616 z"
         style="fill:url(#linearGradient3944);fill-opacity:1;stroke:none;stroke-width:0.260508px;stroke-linecap:butt;stroke-linejoin:miter;stroke-opacity:1"
         id="path3916" /><path
         inkscape:connector-curvature="0"
         d="m -92.319423,126.29099 c -2.715482,-1.08396 -5.643666,-1.44136 -6.670061,0.0875 l -0.02752,0.0739 c 0.180819,2.53348 9.941988,5.81921 12.031675,4.64021 l 0.002,-0.005 c 0.546028,-1.40612 -2.258264,-3.56769 -5.335823,-4.79616 z"
         style="fill:#9d7034;fill-opacity:1;stroke:none;stroke-width:0.260508px;stroke-linecap:butt;stroke-linejoin:miter;stroke-opacity:1"
         id="path3918" /><path
         inkscape:connector-curvature="0"
         d="m -99.689781,131.34096 -1.745619,4.3523 a 7.8994081,2.0113269 21.854507 0 0 3.421506,1.87686 l 1.745794,-4.35278 a 7.8994083,2.0113268 21.854507 0 1 -3.421681,-1.87638 z"
         style="fill:#476978;fill-opacity:0.565909;stroke:none;stroke-width:0.527561;stroke-linecap:round;stroke-linejoin:round;stroke-miterlimit:4;stroke-dasharray:none;stroke-opacity:1;paint-order:stroke fill markers"
         id="path3920" /><path
         inkscape:connector-curvature="0"
         d="m -100.37197,136.36345 -4.00576,9.98753 c 0.39336,0.43276 0.86659,0.80218 1.41415,1.08008 l 4.113143,-10.2553 a 7.8994081,2.011327 21.854507 0 1 -1.521533,-0.81231 z"
         style="fill:#476978;fill-opacity:0.456818;stroke:none;stroke-width:0.406588;stroke-linecap:round;stroke-linejoin:round;stroke-miterlimit:4;stroke-dasharray:none;stroke-opacity:1;paint-order:stroke fill markers"
         id="path3922" /><path
         inkscape:connector-curvature="0"
         d="m -87.957604,135.32039 a 7.8994083,2.0113268 21.854507 0 1 -5.150996,-0.88082 l -1.745784,4.35278 a 7.8994081,2.0113269 21.854507 0 0 5.150976,0.88082 z"
         style="fill:#000000;fill-opacity:0.26494;stroke:none;stroke-width:0.619297;stroke-linecap:round;stroke-linejoin:round;stroke-miterlimit:4;stroke-dasharray:none;stroke-opacity:1;paint-order:stroke fill markers"
         id="path3924" /><path
         inkscape:connector-curvature="0"
         d="m -91.11518,139.65426 a 7.8994081,2.0113269 21.854507 0 1 -2.788898,-0.57402 l -4.11833,10.26822 c 1.103569,0.22885 2.22012,0.066 3.184932,-0.41341 z"
         style="fill:#000000;fill-opacity:0.195219;stroke:none;stroke-width:0.768167;stroke-linecap:round;stroke-linejoin:round;stroke-miterlimit:4;stroke-dasharray:none;stroke-opacity:1;paint-order:stroke fill markers"
         id="path3926" /><path
         sodipodi:nodetypes="cccc"
         inkscape:connector-curvature="0"
         id="path3928"
         d="m -97.737466,148.92082 c 10.697857,16.9091 6.479481,22.14764 -0.335678,31.9274 10.784363,-7.68256 16.240291,-17.17402 3.833179,-32.72964 -0.973476,0.85666 -2.082818,1.2971 -3.497501,0.80224 z"
         style="fill:#000000;fill-opacity:0.24263;stroke:none;stroke-width:0.27794px;stroke-linecap:butt;stroke-linejoin:miter;stroke-opacity:1" /><path
         sodipodi:nodetypes="cc"
         inkscape:connector-curvature="0"
         id="path3930"
         d="m -105.61964,142.61749 c 0.0553,5.12491 8.0706,8.90857 12.4618,4.93872"
         style="fill:none;stroke:#223642;stroke-width:0.611341;stroke-linecap:round;stroke-linejoin:miter;stroke-miterlimit:4;stroke-dasharray:none;stroke-opacity:1" /><path
         sodipodi:nodetypes="cccc"
         inkscape:connector-curvature="0"
         id="path3932"
         d="m -100.21486,129.65889 1.382259,-3.60305 c 3.12634,-3.30814 12.503498,2.0849 12.038215,4.65239 l -1.455897,3.59863"
         style="fill:none;stroke:#4f2614;stroke-width:1.5875;stroke-linecap:round;stroke-linejoin:miter;stroke-miterlimit:4;stroke-dasharray:none;stroke-opacity:1" /><path
         sodipodi:nodetypes="cc"
         inkscape:connector-curvature="0"
         id="path3934"
         d="m -103.31756,134.76009 c 2.44107,2.4838 9.419205,5.60724 13.70331,5.44033"
         style="display:inline;fill:none;stroke:#476978;stroke-width:1.68855;stroke-linecap:round;stroke-linejoin:miter;stroke-miterlimit:4;stroke-dasharray:6.75419;stroke-dashoffset:0.168855;stroke-opacity:1" /></g><path
       style="display:inline;fill:#000000;fill-opacity:1;stroke:none;stroke-width:0.102983px;stroke-linecap:butt;stroke-linejoin:miter;stroke-opacity:1"
       d="m 132.4728,95.458771 c -1.49961,-0.666491 -9.24756,-2.999205 -10.3306,-4.415494 -1.08304,-1.416292 -1.22883,-1.707882 -1.47878,-1.541258 -0.24992,0.166621 0.35408,2.957547 0.60401,3.374103 0.24994,0.416555 1.4996,3.207485 1.6454,3.749006 0.14579,0.541522 0.77063,3.269964 0.7498,3.374106 -0.0208,0.104136 -4.14473,4.977846 -4.29052,5.456886 -0.1458,0.47904 0.43738,4.14473 0.2291,4.89453 -0.20828,0.7498 -2.04113,4.22805 -2.52016,4.99868 -0.47905,0.77062 -2.22858,2.77009 -2.22858,3.31162 0,0.54152 0.0625,2.12443 0.18745,2.4785 0.12497,0.35408 0.66648,1.08305 0.64566,1.29133 -0.0208,0.20828 0,1.72871 0.10414,2.27023 0.10414,0.54152 1.47878,2.7701 1.8745,3.12417 0.39573,0.35407 4.60295,3.64487 5.37358,3.95728 0.77063,0.31242 2.91588,0.66649 3.39493,0.70815 0.47904,0.0417 4.65408,-0.55985 5.10282,-0.45821 2.43639,0.5518 4.5887,1.10316 5.52192,1.12097 4.27416,7.9302 1.09383,14.73431 -2.38944,30.06602 l 54.20491,-9.24381 c 0,0 -2.74772,-7.32206 -2.91434,-8.19683 -0.16662,-0.87477 -0.83312,-8.74768 -0.91642,-9.41417 -0.0833,-0.66649 -1.45795,-4.04059 -2.37437,-4.83205 -0.91643,-0.79146 -4.20722,-4.24887 -5.29026,-4.91536 -1.08305,-0.66649 -2.08279,-1.74954 -2.41603,-2.29106 -0.33325,-0.54153 -1.62457,-4.95702 -2.12444,-5.79013 -0.49987,-0.83311 -2.45768,-3.87397 -3.24914,-4.99867 -0.79146,-1.12471 -2.87423,-4.91537 -3.66569,-5.87345 -0.79146,-0.95807 -5.08199,-5.58185 -5.33192,-5.95675 -0.24994,-0.3749 -1.4996,-3.499069 -1.79118,-3.998935 -0.2916,-0.49987 -1.49962,-3.165826 -1.91616,-3.790662 -0.41656,-0.624836 -0.16663,-1.916158 -0.2916,-2.291059 -0.12496,-0.374901 -1.33297,-4.207218 -1.54126,-4.498808 -0.20827,-0.291587 -2.04112,-3.749003 -2.33271,-4.54046 -0.29159,-0.791456 -2.70761,-2.999205 -3.54073,-2.999205 -0.83311,0 -2.66596,0.541525 -3.12417,1.541258 -0.45821,0.999736 -1.8745,2.74927 -1.8745,3.832317 0,1.083047 -1.79119,5.581855 -2.12443,6.414967 -0.33325,0.833111 -1.1247,1.999465 -1.54126,2.2494 -0.41656,0.249935 -8.03953,1.832848 -8.03953,1.832848 z"
       id="path1747"
       sodipodi:nodetypes="csssssssssssssssscccsssssssssssssssssssc" /><text
       xml:space="preserve"
       style="font-style:normal;font-weight:normal;font-size:10.9269px;line-height:1.25;font-family:sans-serif;fill:#ffffff;fill-opacity:1;stroke:none;stroke-width:0.273174"
       x="211.86266"
       y="169.81902"
       id="text501"><tspan
         sodipodi:role="line"
         id="tspan499"
         x="211.86266"
         y="169.81902"
         style="font-style:normal;font-variant:normal;font-weight:bold;font-stretch:normal;font-family:'Noto Sans';-inkscape-font-specification:'Noto Sans Bold';fill:#ffffff;fill-opacity:1;stroke-width:0.273174">Little Nebula</tspan></text><path
       sodipodi:type="star"
       style="opacity:1;fill:#ffffff;fill-opacity:1;stroke-width:1.05833;stroke-linecap:round;stroke-linejoin:round;stroke-dashoffset:0.7;paint-order:markers stroke fill"
       id="path501"
       inkscape:flatsided="false"
       sodipodi:sides="5"
       sodipodi:cx="366.98843"
       sodipodi:cy="149.19952"
       sodipodi:r1="55.226807"
       sodipodi:r2="24.941784"
       sodipodi:arg1="-1.5707963"
       sodipodi:arg2="-0.94247777"
       inkscape:rounded="0"
       inkscape:randomized="0"
       d="m 366.98844,93.972717 14.66041,35.048483 37.8634,3.1123 -28.80277,24.77346 8.74046,36.97199 -32.46151,-19.73764 -32.4615,19.73764 8.74046,-36.97199 -28.80277,-24.77346 37.8634,-3.1123 z"
       transform="matrix(0.22900313,0,0,0.22900313,225.4612,94.622362)"
       inkscape:transform-center-y="-3.1617773"
       inkscape:transform-center-x="-4.4402066e-06" /></g></svg>
